<?xml version="1.0" standalone="no"?>
<!DOCTYPE svg PUBLIC "-//W3C//DTD SVG 20010904//EN"
 "http://www.w3.org/TR/2001/REC-SVG-20010904/DTD/svg10.dtd">
<svg version="1.0" xmlns="http://www.w3.org/2000/svg"
 width="1452.000000pt" height="1452.000000pt" viewBox="0 0 1452.000000 1452.000000"
 preserveAspectRatio="xMidYMid meet">
<metadata>
Created by potrace 1.14, written by Peter Selinger 2001-2017
</metadata>
<g transform="translate(0.000000,1452.000000) scale(0.100000,-0.100000)"
fill="#000000" stroke="none">
<path d="M7783 12362 c-12 -9 -33 -45 -48 -78 -22 -51 -31 -61 -47 -56 -11 2
-25 13 -31 23 -13 20 -37 26 -37 9 0 -5 -6 -10 -14 -10 -14 0 -56 -32 -108
-83 -15 -15 -28 -25 -28 -22 0 3 -11 -6 -25 -21 -14 -15 -25 -31 -25 -36 0 -5
-4 -7 -9 -3 -5 3 -13 -4 -16 -16 -4 -11 -9 -18 -12 -15 -3 3 -21 -14 -40 -37
-20 -23 -38 -40 -40 -39 -3 2 -25 -15 -49 -38 -24 -22 -44 -37 -44 -33 -1 4
-6 -2 -13 -14 -7 -12 -16 -23 -22 -25 -11 -3 -38 -23 -67 -50 -10 -10 -22 -18
-28 -18 -5 0 -10 -4 -10 -9 0 -4 -31 -29 -70 -55 -38 -25 -70 -43 -70 -40 0 4
-8 0 -17 -8 -10 -8 -53 -35 -96 -59 -44 -24 -94 -53 -113 -63 -18 -11 -30 -24
-27 -29 3 -6 1 -7 -6 -3 -17 11 -38 58 -37 86 1 14 -3 28 -9 33 -6 4 -5 10 4
16 7 5 9 11 4 14 -6 4 -9 19 -8 34 1 15 -2 38 -6 51 -5 14 -5 22 2 22 6 0 7 5
4 11 -4 6 -9 43 -12 83 -5 84 -7 97 -14 111 -3 6 -4 20 -3 33 0 12 -3 22 -8
22 -6 0 -8 6 -5 14 3 8 3 17 -1 20 -3 4 -8 17 -10 29 -6 35 -8 40 -26 77 -11
22 -26 36 -38 37 -29 3 -80 -25 -72 -39 4 -6 3 -8 -3 -5 -5 3 -43 -26 -84 -66
-64 -62 -199 -170 -269 -217 -13 -8 -35 -25 -50 -37 -15 -13 -31 -23 -35 -23
-4 0 -13 -7 -19 -14 -6 -8 -18 -16 -26 -18 -8 -2 -22 -10 -32 -19 -10 -9 -31
-22 -46 -30 -15 -8 -55 -31 -89 -51 -34 -21 -68 -39 -75 -40 -7 -2 -19 -9 -26
-15 -7 -7 -20 -13 -28 -13 -8 0 -14 -4 -14 -9 0 -5 -9 -11 -20 -14 -11 -3 -24
-6 -28 -7 -4 -1 -19 -11 -33 -21 -14 -10 -29 -16 -33 -12 -3 3 -6 1 -6 -5 0
-7 -7 -12 -15 -12 -8 0 -15 -5 -15 -11 0 -5 -4 -8 -9 -4 -5 3 -16 -2 -25 -11
-9 -8 -25 -16 -36 -17 -11 -1 -20 -5 -20 -9 0 -4 -22 -17 -50 -30 -27 -13 -50
-27 -50 -31 0 -5 -4 -5 -10 -2 -5 3 -10 1 -10 -6 0 -7 -3 -10 -6 -6 -4 3 -13
-1 -21 -9 -8 -8 -19 -12 -24 -9 -5 4 -9 2 -9 -4 0 -5 -10 -13 -22 -17 -12 -3
-28 -13 -36 -20 -7 -8 -18 -11 -24 -8 -7 4 -8 2 -4 -4 4 -7 3 -12 -2 -12 -5 0
-37 -18 -70 -40 -34 -22 -62 -36 -62 -33 0 4 -7 -3 -16 -15 -8 -12 -21 -22
-27 -22 -7 0 -28 -14 -47 -30 -51 -44 -54 -46 -62 -48 -5 -1 -16 -10 -27 -19
-10 -10 -47 -40 -81 -68 -35 -27 -81 -66 -104 -87 -22 -21 -44 -38 -48 -38 -4
0 -8 -7 -8 -17 0 -9 -3 -14 -6 -10 -8 8 -221 -208 -229 -233 -3 -11 -11 -18
-16 -15 -5 4 -9 -1 -9 -9 0 -9 -5 -16 -12 -16 -6 0 -9 -3 -5 -6 3 -3 -5 -16
-18 -29 -14 -12 -22 -25 -18 -28 3 -4 -2 -9 -11 -13 -9 -3 -16 -12 -16 -20 0
-8 -3 -14 -7 -14 -11 -1 -55 -73 -51 -83 2 -5 -5 -13 -15 -18 -9 -6 -15 -14
-12 -19 3 -5 1 -11 -5 -15 -6 -4 -8 -11 -5 -16 4 -5 -1 -9 -10 -9 -9 0 -14 -4
-10 -9 3 -5 1 -12 -5 -16 -5 -3 -10 -1 -10 5 0 6 -4 9 -8 6 -5 -3 -15 10 -22
29 -8 19 -17 35 -22 35 -4 0 -8 9 -8 20 0 11 -4 20 -9 20 -5 0 -12 10 -16 23
-12 42 -38 97 -47 97 -4 0 -7 6 -5 13 1 6 -4 11 -10 10 -7 -2 -13 5 -14 15 0
10 -3 12 -6 4 -2 -6 -8 -10 -13 -7 -4 2 -15 -4 -25 -15 -10 -11 -14 -20 -9
-20 5 0 -2 -7 -14 -16 -12 -8 -22 -24 -22 -35 0 -10 -4 -19 -9 -19 -4 0 -16
-21 -26 -47 -10 -27 -22 -53 -27 -60 -5 -7 -7 -16 -4 -22 3 -5 2 -11 -4 -13
-6 -2 -12 -14 -15 -27 -2 -12 -9 -29 -16 -37 -6 -8 -8 -14 -4 -14 4 0 2 -7 -5
-15 -7 -8 -9 -15 -6 -15 4 0 -3 -14 -15 -32 -13 -17 -18 -28 -11 -24 8 5 10 2
6 -8 -3 -9 -11 -16 -17 -16 -6 0 -8 -3 -4 -6 3 -3 -6 -32 -20 -63 -13 -31 -26
-61 -27 -67 -1 -7 -8 -20 -16 -30 -13 -15 -13 -16 -1 -9 11 6 10 2 -2 -16 -9
-13 -17 -31 -17 -41 0 -10 -5 -18 -12 -18 -6 0 -9 -3 -5 -6 3 -4 0 -19 -8 -34
-8 -15 -11 -30 -8 -33 3 -4 -2 -9 -11 -13 -9 -3 -14 -10 -11 -14 3 -4 -3 -25
-12 -46 -9 -22 -16 -42 -15 -46 1 -5 -3 -8 -8 -8 -5 0 -9 -3 -9 -7 1 -5 0 -10
-1 -13 -1 -3 -3 -13 -5 -23 -2 -10 -7 -26 -11 -35 -4 -9 -8 -20 -8 -24 -1 -3
-4 -9 -8 -13 -4 -4 -4 -13 -1 -21 3 -8 1 -14 -4 -14 -5 0 -10 -6 -11 -12 0 -7
-6 -31 -12 -53 -6 -22 -12 -52 -15 -68 -2 -15 -7 -33 -11 -39 -5 -7 -3 -8 5
-3 10 6 11 3 1 -15 -6 -12 -9 -24 -6 -27 3 -4 1 -12 -5 -20 -6 -7 -8 -13 -4
-13 4 0 2 -7 -5 -15 -9 -11 -9 -15 -1 -15 8 0 9 -6 3 -17 -14 -27 -4 -495 11
-509 3 -3 3 -12 1 -19 -3 -7 0 -16 5 -20 6 -3 9 -11 5 -16 -8 -14 -12 -69 -4
-69 3 0 6 -15 6 -32 1 -37 12 -144 21 -198 3 -19 6 -55 8 -80 2 -25 4 -45 5
-45 1 0 3 -11 5 -25 1 -14 6 -50 10 -80 3 -30 7 -69 9 -85 1 -17 4 -35 7 -40
3 -6 5 -25 4 -42 -1 -18 2 -33 5 -33 4 0 6 -16 5 -36 -1 -19 2 -37 6 -40 4 -2
6 -15 4 -29 -1 -14 1 -25 4 -25 3 0 7 -18 9 -41 4 -55 5 -63 17 -71 6 -5 5 -8
-4 -8 -11 0 -11 -3 -1 -15 7 -8 10 -15 8 -15 -3 0 -1 -21 4 -47 5 -27 11 -65
14 -86 7 -47 12 -72 14 -72 1 0 3 -11 4 -25 2 -14 7 -50 11 -80 5 -30 9 -63 9
-72 0 -10 3 -18 7 -18 3 0 5 -11 4 -25 -2 -14 0 -25 3 -25 4 0 8 -10 8 -22 4
-66 13 -126 23 -150 8 -21 8 -28 -2 -28 -8 0 -8 -3 -2 -8 6 -4 10 -14 10 -22
-1 -8 1 -19 4 -25 3 -5 6 -23 7 -40 2 -16 5 -46 9 -65 3 -19 7 -51 10 -70 5
-47 12 -78 21 -92 4 -7 3 -8 -4 -4 -8 4 -7 -7 3 -33 7 -21 11 -42 7 -46 -4 -3
0 -10 8 -15 11 -7 11 -10 2 -10 -10 0 -10 -5 -2 -20 6 -11 9 -20 6 -20 -3 0 0
-15 5 -32 6 -18 12 -49 15 -68 4 -31 14 -68 32 -120 3 -8 4 -18 4 -22 -1 -5 3
-8 9 -8 5 0 8 -4 5 -9 -3 -5 1 -21 9 -37 7 -15 12 -31 9 -36 -3 -4 -1 -8 5 -8
5 0 8 -8 7 -17 -3 -20 -40 -20 -62 0 -32 29 -40 33 -52 29 -6 -2 -12 0 -12 6
0 5 -16 9 -35 9 -19 0 -35 -5 -35 -10 0 -6 -3 -8 -6 -4 -5 5 -42 -22 -71 -53
-43 -45 -61 -75 -58 -96 1 -13 -2 -24 -7 -24 -5 0 -8 -6 -5 -12 2 -7 -2 -34
-10 -61 -8 -26 -11 -52 -8 -57 3 -6 2 -10 -4 -10 -7 0 -7 -8 -1 -25 6 -15 6
-27 0 -30 -5 -3 -6 -16 -2 -28 5 -12 8 -29 7 -37 -1 -8 1 -19 4 -25 6 -12 8
-26 16 -135 7 -101 8 -111 18 -127 5 -8 3 -13 -3 -13 -6 0 -8 -5 -3 -12 8 -13
12 -43 15 -105 1 -18 5 -33 9 -33 4 0 7 -10 8 -22 3 -70 7 -98 12 -98 3 0 6
-10 7 -22 2 -37 28 -183 32 -183 2 0 9 -32 14 -65 11 -65 17 -94 25 -109 5 -9
7 -26 6 -39 -1 -12 3 -22 8 -22 5 0 7 -7 3 -15 -3 -8 -2 -15 3 -15 9 0 26 -48
23 -62 -1 -5 2 -8 6 -8 4 0 14 -15 20 -34 7 -19 26 -49 41 -65 16 -17 27 -31
24 -31 -2 0 2 -7 11 -15 25 -25 101 -53 139 -51 20 1 34 0 32 -2 -2 -2 5 -13
15 -24 10 -12 22 -34 25 -50 4 -16 13 -32 20 -34 7 -3 12 -13 10 -22 -1 -9 2
-23 8 -30 5 -6 6 -12 3 -12 -4 0 0 -7 9 -16 9 -9 19 -29 22 -45 3 -16 10 -29
15 -29 5 0 7 -4 4 -9 -3 -4 1 -17 9 -27 8 -10 15 -27 15 -36 0 -10 5 -18 10
-18 6 0 10 -7 10 -15 0 -8 9 -30 19 -49 11 -19 17 -37 14 -40 -4 -3 -1 -6 6
-6 7 0 9 -5 6 -10 -3 -6 -1 -10 4 -10 6 0 11 -9 11 -19 0 -11 4 -22 9 -26 5
-3 12 -19 16 -35 4 -17 11 -30 16 -30 6 0 7 -5 4 -10 -3 -6 1 -13 9 -16 9 -3
13 -10 10 -15 -3 -5 -2 -15 3 -21 4 -7 8 -20 10 -28 1 -8 7 -16 12 -18 6 -2
11 -10 11 -18 0 -9 14 -44 31 -79 17 -35 32 -71 33 -80 1 -9 8 -20 15 -24 7
-4 11 -12 10 -17 -4 -12 70 -157 85 -166 6 -4 7 -8 2 -8 -5 0 -3 -7 4 -15 7
-8 9 -15 6 -15 -4 0 0 -7 8 -16 9 -8 16 -22 16 -29 0 -7 12 -28 28 -46 15 -18
20 -30 12 -25 -8 4 -6 0 4 -8 11 -9 17 -16 13 -16 -8 0 0 -10 81 -96 32 -33
65 -63 73 -66 9 -4 40 -55 69 -115 28 -59 61 -125 72 -146 11 -21 17 -41 14
-44 -3 -4 3 -13 15 -21 11 -7 18 -19 16 -25 -2 -6 5 -20 15 -31 10 -11 18 -28
18 -37 0 -10 8 -23 18 -28 9 -6 13 -11 9 -11 -10 0 4 -18 69 -86 28 -29 54
-50 58 -47 3 4 6 1 6 -6 0 -7 4 -9 10 -6 6 3 10 0 10 -7 0 -9 3 -9 10 2 6 10
10 11 10 3 0 -7 5 -13 12 -13 6 0 9 3 5 6 -9 9 54 74 71 74 9 0 13 -3 9 -6 -5
-6 0 -15 31 -49 6 -7 12 -16 12 -19 0 -5 18 -29 45 -60 19 -21 60 -72 85 -106
14 -18 35 -45 48 -58 12 -14 22 -28 22 -31 0 -3 18 -26 40 -50 22 -24 40 -47
40 -52 0 -5 6 -9 14 -9 8 0 18 -9 21 -20 4 -11 11 -18 16 -15 5 4 9 2 9 -4 0
-9 96 -80 144 -106 10 -6 19 -15 19 -20 0 -6 8 -16 19 -23 10 -7 16 -17 13
-22 -3 -4 -1 -10 3 -12 13 -4 62 -96 62 -113 0 -8 4 -15 9 -15 8 0 25 -49 21
-58 -1 -2 8 -12 19 -21 11 -10 18 -21 14 -25 -3 -3 -1 -6 5 -6 7 0 12 -9 12
-21 0 -11 4 -18 8 -15 5 3 15 -6 22 -19 7 -14 19 -25 26 -25 7 0 15 -6 17 -12
4 -9 8 -10 14 -2 4 6 16 13 26 17 10 4 15 11 12 17 -3 5 -1 10 5 10 6 0 9 4 5
9 -3 6 3 14 12 20 10 5 15 13 11 17 -5 4 -3 13 3 21 6 7 8 13 5 13 -4 0 -1 10
6 23 11 21 17 41 20 80 1 9 6 17 10 17 4 0 4 7 1 17 -5 12 -3 14 7 8 9 -5 11
-4 6 4 -10 15 21 44 39 37 8 -3 15 -12 15 -21 0 -8 5 -15 11 -15 5 0 7 -5 4
-10 -3 -6 -2 -10 4 -10 10 0 27 -38 23 -52 -1 -5 3 -8 9 -8 5 0 17 -15 25 -32
30 -63 39 -78 46 -78 5 0 8 -6 8 -13 0 -8 9 -24 20 -37 11 -13 20 -27 20 -32
0 -5 5 -14 10 -21 6 -7 24 -30 40 -52 16 -22 34 -45 40 -52 5 -7 10 -16 10
-20 0 -5 9 -15 20 -23 11 -8 20 -18 20 -22 0 -18 114 -114 142 -120 7 -2 16
-7 19 -12 4 -4 16 -3 28 3 11 7 21 9 21 6 0 -4 7 0 15 7 8 7 26 22 41 33 14
11 31 25 39 32 7 7 16 9 19 5 4 -3 4 1 0 11 -3 10 -1 17 5 17 15 0 51 37 43
44 -3 3 2 6 12 6 9 0 14 5 11 10 -3 6 1 13 10 16 9 4 22 19 30 34 8 16 20 34
27 42 27 27 68 87 68 97 0 6 4 11 8 11 5 0 15 12 22 28 21 41 73 116 88 125 6
4 12 14 12 21 0 7 9 22 20 34 12 12 18 22 15 22 -4 0 1 7 9 16 14 13 20 14 45
3 16 -7 27 -17 25 -21 -3 -4 2 -8 11 -8 9 0 13 -4 10 -10 -3 -5 -1 -10 5 -10
6 0 9 -4 6 -9 -4 -5 -2 -11 4 -13 5 -1 10 -20 12 -41 1 -20 7 -37 13 -37 5 0
3 -5 -5 -10 -10 -6 -11 -10 -2 -10 6 0 12 -8 12 -17 0 -24 42 -108 55 -110 6
-1 17 -4 25 -8 9 -3 25 3 37 15 12 11 24 20 27 20 10 0 61 55 58 64 -1 4 2 14
8 21 6 7 13 21 15 31 11 51 36 98 103 188 39 55 72 93 72 85 0 -8 3 -10 8 -4
4 6 23 18 42 28 75 38 125 79 112 92 -4 4 -2 6 3 4 16 -4 45 12 39 22 -3 5 -1
9 4 9 5 0 19 9 32 20 13 11 20 20 15 20 -4 0 5 10 21 23 39 30 84 78 84 89 0
5 4 7 9 4 4 -3 13 6 19 19 7 14 16 25 22 25 5 0 10 7 10 15 0 8 8 15 17 15 9
0 13 3 10 7 -4 3 2 12 13 20 11 8 20 20 20 27 0 8 6 16 14 19 15 6 76 92 76
108 0 5 4 9 9 9 5 0 12 11 15 25 4 14 11 23 15 20 5 -3 12 1 15 7 3 9 11 6 24
-9 11 -12 23 -19 27 -15 3 4 6 2 4 -3 -3 -16 22 -75 32 -75 5 0 9 -7 9 -16 0
-15 30 -53 30 -37 0 4 5 1 10 -7 9 -13 12 -13 21 3 5 9 14 17 20 17 5 0 25 16
43 35 19 19 39 35 46 35 6 0 8 4 5 10 -3 5 -1 10 4 10 6 0 11 6 11 14 0 8 7
17 16 20 9 3 14 12 12 18 -3 7 4 21 14 32 10 11 18 26 18 33 0 7 5 13 11 13 5
0 7 5 4 10 -3 6 -1 10 5 10 6 0 8 5 5 10 -3 5 -1 10 5 10 6 0 8 5 5 11 -4 6 2
19 14 30 12 11 19 24 16 28 -2 5 2 14 10 21 8 7 15 19 15 26 0 8 5 14 11 14 5
0 7 5 4 10 -3 6 -1 10 5 10 6 0 8 5 5 10 -3 6 0 13 9 16 8 3 13 11 10 19 -3 7
1 19 8 26 15 16 52 89 53 104 0 6 10 26 22 45 12 19 29 54 38 78 13 31 23 42
39 42 17 0 18 -2 6 -10 -13 -8 -12 -10 3 -10 9 0 17 -5 17 -11 0 -5 -5 -7 -11
-3 -8 5 -8 1 0 -13 6 -11 7 -23 4 -27 -3 -3 -1 -6 5 -6 7 0 11 -3 11 -7 -3
-19 2 -33 12 -33 5 0 7 4 4 10 -3 6 1 7 9 4 9 -3 13 -11 9 -18 -3 -6 4 -2 16
9 13 11 25 18 26 15 2 -3 7 -1 12 4 5 6 2 6 -7 1 -8 -5 0 6 18 24 17 18 32 37
32 42 0 26 20 50 35 41 6 -3 4 1 -3 10 -9 11 -9 17 -2 20 6 2 12 13 12 25 2
14 7 19 18 15 8 -3 12 -1 7 3 -4 5 1 17 10 28 12 13 13 17 4 12 -8 -5 -5 6 8
23 12 18 19 37 15 43 -4 8 -3 9 4 5 7 -4 12 -1 12 8 0 9 5 16 11 16 5 0 8 4 4
9 -3 5 2 16 10 25 9 8 15 17 14 18 -4 7 13 48 20 48 7 0 22 48 20 66 0 4 3 10
8 13 13 10 53 96 53 115 0 10 5 14 10 11 6 -4 10 -3 9 2 -4 26 2 53 12 48 6
-4 10 -1 9 6 -3 22 11 59 22 59 6 0 8 9 5 20 -3 11 -1 20 3 20 4 0 16 25 25
55 10 30 21 52 26 49 5 -3 6 2 3 10 -3 9 -1 16 5 16 6 0 8 6 5 14 -3 8 0 17 5
21 6 3 9 11 6 16 -4 5 -1 9 4 9 6 0 11 8 11 18 0 9 7 30 15 45 9 19 10 25 2
21 -7 -4 -1 5 13 21 14 16 20 25 13 22 -6 -4 -3 11 8 32 10 22 19 45 19 51 0
6 5 21 12 33 11 21 16 41 20 79 1 9 7 14 12 11 5 -4 7 1 3 10 -3 10 -3 17 1
17 8 0 32 71 32 93 0 14 66 17 88 3 7 -4 12 -3 12 3 0 6 11 6 30 1 17 -5 30
-6 30 -2 0 4 11 7 25 7 14 0 25 -3 25 -6 0 -3 29 -6 65 -6 36 0 65 3 65 9 0 5
5 6 10 3 6 -3 10 -1 10 6 0 7 3 9 7 6 3 -4 13 -1 22 7 9 8 20 14 25 13 5 -1
17 14 27 33 11 19 19 31 19 25 0 -5 6 0 14 10 8 11 12 23 9 27 -2 5 3 11 11
14 9 3 13 10 10 15 -3 5 0 9 6 9 6 0 9 4 6 9 -3 5 1 14 9 21 8 7 15 23 15 36
0 12 5 26 10 29 6 3 10 15 10 26 0 10 5 19 10 19 6 0 10 13 10 29 0 17 5 33
10 36 6 3 10 15 10 26 0 10 5 19 11 19 5 0 8 4 4 10 -3 5 1 25 9 45 11 25 12
33 3 28 -9 -5 -9 -3 -1 8 6 8 10 22 9 32 -2 9 0 15 5 12 7 -4 26 79 22 98 -1
4 2 7 6 7 4 0 8 8 9 18 1 15 5 40 17 107 2 11 7 34 11 50 4 17 8 42 8 58 1 15
6 27 11 27 5 0 6 3 3 6 -3 4 -2 15 3 25 7 12 7 20 0 24 -6 4 -8 11 -5 16 9 14
17 52 16 78 -1 12 2 28 6 35 12 18 13 306 1 306 -6 0 -5 6 3 16 7 9 9 18 3 22
-10 8 -12 16 -16 66 -1 20 -6 36 -10 36 -4 0 -7 3 -7 8 1 4 0 10 -1 15 -1 4
-3 10 -4 15 -10 35 -40 91 -47 86 -5 -3 -9 -1 -9 4 0 17 -85 94 -94 85 -3 -4
-6 -1 -6 6 0 7 -4 9 -10 6 -5 -3 -10 -2 -10 4 0 13 -51 6 -60 -9 -4 -7 -13 -9
-19 -6 -6 4 -11 2 -11 -4 0 -6 -5 -8 -10 -5 -6 3 -13 -1 -16 -10 -4 -9 -12
-14 -19 -11 -7 2 -22 -2 -34 -11 -18 -12 -25 -12 -37 -2 -12 10 -12 14 -2 20
7 5 8 9 2 9 -11 0 -11 23 -1 50 8 21 31 94 32 100 0 3 4 11 8 18 5 6 6 16 3
21 -4 5 -2 11 3 13 5 1 12 22 16 45 3 23 8 57 11 75 3 18 8 51 11 73 3 22 9
45 14 50 4 6 4 17 -1 25 -5 8 -6 19 -2 24 6 11 10 44 13 119 1 20 6 40 11 43
5 3 4 12 -3 20 -6 8 -7 14 -2 14 5 0 9 15 10 33 3 45 10 112 13 112 2 0 5 38
14 165 2 30 5 55 6 55 1 0 4 29 6 65 2 36 5 95 7 133 2 37 7 70 10 74 4 3 2
12 -4 20 -6 7 -7 13 -2 13 5 0 9 8 10 18 1 9 4 55 7 102 4 47 8 111 9 143 1
31 5 57 8 57 4 0 5 9 2 20 -3 11 0 26 6 34 8 9 8 16 2 20 -5 4 -8 21 -5 39 10
64 10 87 1 87 -4 0 -5 5 -1 11 12 20 12 69 0 69 -7 0 -7 3 -1 8 12 8 14 71 2
89 -4 6 -4 14 1 17 10 6 9 127 -1 144 -5 6 -4 12 0 12 5 0 9 11 9 25 0 14 -4
25 -9 25 -5 0 -4 6 2 14 9 10 9 16 1 21 -8 5 -8 11 -1 19 6 7 8 16 4 20 -8 7
-10 20 -17 91 -11 101 -23 190 -26 190 -3 0 -11 39 -12 55 0 8 -4 20 -8 25 -4
6 -6 18 -5 28 2 9 0 17 -4 17 -4 0 -8 6 -9 13 0 6 -3 19 -5 27 -3 8 -8 30 -12
48 -4 17 -11 32 -16 32 -5 0 -6 7 -3 15 4 8 1 15 -5 15 -6 0 -8 7 -5 15 4 8 1
15 -5 15 -6 0 -8 7 -5 15 4 8 1 15 -5 15 -6 0 -8 7 -5 15 4 8 1 15 -6 15 -6 0
-9 4 -5 9 3 5 1 12 -5 16 -5 3 -10 15 -10 26 0 10 -5 19 -12 19 -6 0 -8 3 -5
7 4 3 0 17 -9 31 -9 13 -12 22 -7 19 6 -4 -3 19 -18 51 -50 102 -69 146 -69
159 0 7 -4 13 -10 13 -5 0 -10 7 -10 15 0 8 -9 30 -20 50 -11 19 -16 35 -12
35 4 0 -1 5 -10 11 -10 5 -18 16 -18 24 0 8 -8 29 -19 48 -35 62 -55 102 -56
109 0 4 -6 13 -12 20 -7 6 -13 20 -13 30 0 9 -7 21 -15 26 -9 4 -17 19 -20 32
-2 13 -9 26 -13 29 -5 3 -17 22 -27 41 -10 19 -22 38 -27 41 -10 7 -23 27 -60
97 -12 23 -26 42 -31 42 -4 0 -5 5 -2 10 3 6 -1 13 -9 16 -9 3 -14 10 -11 14
2 4 -6 19 -20 34 -13 15 -23 28 -22 31 1 2 -6 13 -15 25 -10 11 -15 20 -12 20
3 0 -2 7 -10 16 -9 8 -14 19 -12 23 3 4 -4 13 -14 21 -10 8 -17 17 -14 22 3 4
0 8 -6 8 -6 0 -8 5 -5 10 3 6 3 10 -2 10 -4 0 -14 13 -21 28 -6 16 -21 38 -32
50 -12 12 -18 22 -15 22 3 0 -5 15 -19 33 -15 19 -26 39 -26 46 0 7 -4 10 -9
7 -5 -4 -12 0 -14 6 -3 8 -6 6 -6 -5 -1 -9 -7 -16 -13 -15 -7 2 -13 -6 -14
-17 -1 -11 -5 -31 -11 -44 -5 -13 -9 -74 -8 -135 0 -65 -4 -114 -10 -118 -6
-5 -6 -8 2 -8 6 0 9 -8 7 -17 -2 -10 -6 -38 -8 -63 -2 -25 -5 -48 -5 -52 -2
-13 -36 -1 -36 13 -1 8 -7 13 -14 11 -7 -1 -10 1 -7 6 3 5 -5 18 -17 29 -36
32 -77 82 -77 94 0 5 -4 7 -10 4 -5 -3 -10 0 -10 9 0 8 -4 16 -8 18 -12 5 -64
98 -55 98 4 0 3 4 -2 8 -6 4 -17 21 -25 37 -8 17 -21 40 -30 51 -8 12 -22 32
-30 44 -8 12 -23 31 -32 42 -10 12 -18 27 -18 35 0 7 -5 13 -11 13 -5 0 -7 5
-4 10 3 6 2 10 -3 10 -10 0 -27 47 -23 63 1 5 -3 6 -8 3 -8 -5 -26 39 -23 57
1 4 -3 7 -8 7 -6 0 -18 17 -28 38 -9 20 -19 39 -23 42 -3 3 -13 22 -22 43 -10
20 -22 37 -28 37 -6 0 -8 3 -5 8 2 4 -9 26 -25 50 -16 23 -29 47 -29 52 0 6
-5 10 -11 10 -5 0 -7 5 -4 10 3 6 -1 13 -9 16 -9 3 -16 11 -16 16 0 5 -9 23
-21 39 -11 16 -17 29 -14 29 4 0 -3 12 -14 26 -12 15 -21 31 -21 37 0 5 -8 16
-17 24 -12 10 -13 12 -3 8 9 -4 7 0 -4 9 -10 8 -15 19 -11 25 3 6 1 11 -4 11
-6 0 -11 7 -11 15 0 8 -3 15 -8 15 -4 0 -13 14 -21 32 -16 35 -28 51 -83 110
-46 49 -75 57 -84 22 -3 -13 -9 -24 -13 -24 -4 0 -8 -10 -9 -22 -1 -13 -4 -41
-7 -63 -4 -22 -7 -68 -8 -102 -1 -35 -6 -63 -10 -63 -4 0 -3 -9 3 -20 8 -15 8
-20 -1 -20 -6 0 -9 -7 -5 -15 7 -18 -15 -20 -33 -2 -11 10 -13 10 -7 0 9 -17
-2 -17 -17 0 -17 18 -49 77 -42 77 3 0 -1 13 -9 29 -9 16 -12 31 -9 35 4 3 0
6 -7 6 -7 0 -10 3 -7 6 3 4 2 15 -4 26 -6 11 -13 32 -15 46 -3 15 -7 34 -11
42 -3 8 -7 22 -8 30 -1 8 -7 28 -13 43 -7 16 -12 33 -12 38 0 5 -7 21 -16 34
-9 14 -12 25 -8 25 5 0 3 4 -4 8 -7 5 -14 17 -17 28 -3 17 -12 43 -38 116 -5
15 -8 30 -7 34 1 4 -3 10 -9 13 -5 4 -12 19 -15 35 -3 16 -9 32 -13 35 -4 3
-9 13 -11 21 -1 8 -6 24 -11 35 -21 48 -36 91 -33 98 1 4 -2 7 -8 7 -5 0 -10
9 -10 19 0 11 -5 23 -10 26 -6 4 -8 11 -5 16 4 5 2 9 -4 9 -6 0 -13 16 -17 35
-3 19 -10 33 -14 30 -4 -3 -10 4 -13 15 -6 25 -18 25 -44 2z"/>
</g>
</svg>
